<?xml version="1.0" standalone="no"?>
<!DOCTYPE svg PUBLIC "-//W3C//DTD SVG 20010904//EN"
 "http://www.w3.org/TR/2001/REC-SVG-20010904/DTD/svg10.dtd">
<svg version="1.0" xmlns="http://www.w3.org/2000/svg"
 width="64.000000pt" height="64.000000pt" viewBox="0 0 64.000000 64.000000"
 preserveAspectRatio="xMidYMid meet">

<g transform="translate(0.000000,64.000000) scale(0.100000,-0.100000)"
fill="#000000" stroke="none">
<path d="M126 504 c-8 -21 40 -104 59 -104 21 0 19 10 -10 53 l-26 37 28 0
c40 0 415 -49 421 -55 3 -2 -44 -57 -104 -121 -60 -64 -128 -137 -150 -163
-23 -25 -45 -43 -48 -40 -4 3 -9 35 -13 71 -9 99 8 123 119 165 50 19 62 39
22 36 -48 -4 -133 -50 -154 -85 -19 -29 -21 -43 -16 -118 6 -91 21 -119 56
-100 9 5 84 81 166 170 143 155 175 203 142 215 -20 7 -411 55 -450 55 -24 0
-38 -5 -42 -16z"/>
<path d="M111 309 c-30 -13 -41 -23 -34 -30 11 -11 123 26 123 42 0 15 -42 10
-89 -12z"/>
<path d="M123 241 c-76 -28 -102 -45 -85 -55 15 -9 182 55 182 70 0 19 -13 17
-97 -15z"/>
</g>
</svg>
